
<svg width="1086px" height="296px" viewBox="0 0 1086 296" version="1.1" xmlns="http://www.w3.org/2000/svg" xmlns:xlink="http://www.w3.org/1999/xlink">
    <!-- Generator: Sketch 42 (36781) - http://www.bohemiancoding.com/sketch -->
    <desc>Created with Sketch.</desc>
    <defs></defs>
    <path d="M146.409,157.192 C146.409,181.147 140.869,200.411 129.79,214.984 C118.711,229.557 103.24,236.843 83.377,236.843 C74.893,236.843 67.357,235.271 60.769,232.127 C54.181,228.983 48.542,224.367 43.851,218.278 L43.851,295.982 L0.282,295.982 L0.282,71.703 L42.603,71.703 L42.204,90.867 C46.995,83.78 52.759,78.316 59.497,74.473 C66.234,70.63 74.095,68.709 83.078,68.709 C103.14,68.709 118.711,76.544 129.79,92.215 C140.869,107.886 146.409,128.497 146.409,154.049 L146.409,157.192 Z M102.69,154.048 C102.69,138.777 100.145,126.4 95.054,116.918 C89.964,107.436 82.178,102.695 71.698,102.695 C65.11,102.695 59.496,104.042 54.855,106.737 C50.214,109.432 46.546,113.275 43.851,118.265 L43.851,189.232 C46.546,193.823 50.214,197.317 54.855,199.712 C59.496,202.107 65.211,203.305 71.998,203.305 C82.578,203.305 90.339,199.163 95.279,190.878 C100.22,182.594 102.69,171.365 102.69,157.191 L102.69,154.048 Z" id="Shape" stroke="none" fill="#FFFFFF" fill-rule="nonzero"></path>
    <polygon id="Shape" stroke="none" fill="#FFFFFF" fill-rule="nonzero" points="197.251 233.699 153.533 233.699 153.533 104.911 197.251 104.911 197.251 233.699"></polygon>
    <polygon id="Shape" stroke="none" fill="#FFFFFF" fill-rule="nonzero" points="280.008 123.206 280.906 123.206 305.76 71.703 355.167 71.703 306.358 151.803 356.813 233.699 307.555 233.699 281.055 179.95 254.555 233.699 205.148 233.699 255.604 151.803 206.646 71.703 255.754 71.703"></polygon>
    <path d="M416.465,236.843 C392.31,236.843 373.446,229.432 359.871,214.61 C346.296,199.788 339.509,180.699 339.509,157.342 L339.509,151.353 C339.509,127.098 346.097,107.236 359.272,91.765 C372.447,76.294 390.563,68.608 413.62,68.708 C435.379,68.708 452.073,75.371 463.701,88.696 C475.329,102.021 481.143,119.962 481.143,142.52 L481.143,165.128 L384.574,165.128 L384.125,166.026 C384.824,177.105 388.192,186.088 394.231,192.975 C400.27,199.862 409.228,203.306 421.106,203.306 C430.888,203.306 439.197,202.308 446.034,200.312 C452.871,198.316 459.933,195.271 467.219,191.179 L479.047,218.128 C472.559,223.418 463.776,227.86 452.696,231.453 C441.616,235.046 429.541,236.843 416.465,236.843 Z M413.621,102.395 C404.837,102.395 398.075,105.414 393.334,111.453 C388.593,117.492 385.723,125.502 384.725,135.483 L385.024,136.232 L438.324,136.232 L438.324,132.938 C438.324,123.456 436.378,115.995 432.485,110.555 C428.593,105.115 422.304,102.395 413.621,102.395 Z" id="Shape" stroke="none" fill="#FFFFFF" fill-rule="nonzero"></path>
    <polygon id="Shape" stroke="none" fill="#FFFFFF" fill-rule="nonzero" points="538.15 233.699 494.432 233.699 494.432 0.137 538.15 0.137"></polygon>
    <path d="M628.568,203.306 C636.154,203.306 642.193,201.035 646.684,196.494 C651.176,191.952 653.421,185.889 653.421,178.303 L693.246,178.303 L693.545,179.201 C693.944,195.57 687.856,209.27 675.279,220.299 C662.703,231.328 647.132,236.843 628.566,236.843 C604.611,236.843 586.096,229.182 573.02,213.861 C559.945,198.54 553.407,178.951 553.407,155.096 L553.407,150.604 C553.407,126.849 559.92,107.26 572.946,91.839 C585.972,76.418 604.412,68.707 628.267,68.707 C648.03,68.707 663.95,74.396 676.027,85.775 C688.104,97.154 693.943,112.126 693.544,130.691 L693.245,131.589 L653.42,131.589 C653.42,123.205 651.199,116.243 646.758,110.703 C642.317,105.163 636.153,102.394 628.268,102.394 C616.989,102.394 608.979,106.911 604.238,115.944 C599.497,124.977 597.126,136.53 597.126,150.604 L597.126,155.096 C597.126,169.469 599.497,181.097 604.238,189.981 C608.979,198.865 617.089,203.306 628.568,203.306 Z" id="Shape" stroke="none" fill="#22BDAF" fill-rule="nonzero"></path>
    <path d="M805.075,209.743 C800.084,218.427 793.746,225.114 786.061,229.805 C778.375,234.496 769.442,236.842 759.261,236.842 C742.193,236.842 728.843,231.053 719.211,219.475 C709.579,207.897 704.763,189.93 704.763,165.576 L704.763,71.702 L748.331,71.702 L748.331,165.875 C748.331,180.048 750.252,189.755 754.095,194.995 C757.938,200.235 763.902,202.855 771.986,202.855 C778.973,202.855 784.962,201.732 789.952,199.486 C794.942,197.24 799.035,193.921 802.229,189.53 L802.229,71.701 L845.947,71.701 L845.947,233.697 L804.774,233.697 L805.075,209.743 Z" id="Shape" stroke="none" fill="#22BDAF" fill-rule="nonzero"></path>
    <path d="M942.006,109.282 L925.986,108.833 C919.498,108.833 914.158,110.18 909.966,112.875 C905.774,115.57 902.58,119.363 900.384,124.254 L900.384,233.699 L856.816,233.699 L856.816,71.703 L898.999,71.703 L899.336,95.658 C903.129,87.174 908.045,80.561 914.083,75.82 C920.122,71.079 927.084,68.708 934.969,68.708 C937.165,68.708 939.186,68.883 941.033,69.232 C942.88,69.581 944.751,70.006 946.647,70.505 L942.006,109.282 Z" id="Shape" stroke="none" fill="#22BDAF" fill-rule="nonzero"></path>
    <path d="M1020.571,236.843 C996.416,236.843 977.552,229.432 963.977,214.61 C950.402,199.788 943.615,180.699 943.615,157.342 L943.615,151.353 C943.615,127.098 950.203,107.236 963.378,91.765 C976.553,76.294 994.669,68.608 1017.726,68.708 C1039.485,68.708 1056.179,75.371 1067.807,88.696 C1079.435,102.021 1085.249,119.962 1085.249,142.52 L1085.249,165.128 L988.68,165.128 L988.231,166.026 C988.93,177.105 992.298,186.088 998.337,192.975 C1004.376,199.862 1013.334,203.306 1025.212,203.306 C1034.994,203.306 1043.303,202.308 1050.14,200.312 C1056.977,198.316 1064.039,195.271 1071.325,191.179 L1083.153,218.128 C1076.665,223.418 1067.882,227.86 1056.802,231.453 C1045.722,235.046 1033.647,236.843 1020.571,236.843 Z M1017.727,102.395 C1008.943,102.395 1002.181,105.414 997.44,111.453 C992.699,117.492 989.829,125.502 988.831,135.483 L989.13,136.232 L1042.43,136.232 L1042.43,132.938 C1042.43,123.456 1040.484,115.995 1036.591,110.555 C1032.699,105.115 1026.411,102.395 1017.727,102.395 Z" id="Shape" stroke="none" fill="#22BDAF" fill-rule="nonzero"></path>
    <rect id="Rectangle-path" stroke="none" fill="#5C7F7B" fill-rule="nonzero" x="153.718" y="72.793" width="21.707" height="21.707"></rect>
    <rect id="Rectangle-path" stroke="none" fill="#22BDAF" fill-rule="nonzero" x="175.426" y="51.086" width="21.707" height="21.707"></rect>
</svg>